<svg width="20" height="15" viewBox="0 0 20 15" fill="none" xmlns="http://www.w3.org/2000/svg">
<path d="M14.375 11.25C14.2092 11.25 14.0503 11.3158 13.9331 11.4331C13.8158 11.5503 13.75 11.7092 13.75 11.875C13.75 12.0408 13.8158 12.1997 13.9331 12.3169C14.0503 12.4342 14.2092 12.5 14.375 12.5H16.875C17.0408 12.5 17.1997 12.4342 17.3169 12.3169C17.4342 12.1997 17.5 12.0408 17.5 11.875C17.5 11.7092 17.4342 11.5503 17.3169 11.4331C17.1997 11.3158 17.0408 11.25 16.875 11.25H14.375ZM0 3.4375C0 2.52582 0.362164 1.65148 1.00682 1.00682C1.65148 0.362164 2.52582 0 3.4375 0H16.5625C17.4742 0 18.3485 0.362164 18.9932 1.00682C19.6378 1.65148 20 2.52582 20 3.4375V11.5625C20 12.4742 19.6378 13.3485 18.9932 13.9932C18.3485 14.6378 17.4742 15 16.5625 15H3.4375C2.52582 15 1.65148 14.6378 1.00682 13.9932C0.362164 13.3485 0 12.4742 0 11.5625V3.4375ZM3.4375 1.25C2.85734 1.25 2.30094 1.48047 1.8907 1.8907C1.48047 2.30094 1.25 2.85734 1.25 3.4375V5H18.75V3.4375C18.75 2.85734 18.5195 2.30094 18.1093 1.8907C17.6991 1.48047 17.1427 1.25 16.5625 1.25H3.4375ZM18.75 6.25H1.25V11.5625C1.25 12.77 2.23 13.75 3.4375 13.75H16.5625C17.1427 13.75 17.6991 13.5195 18.1093 13.1093C18.5195 12.6991 18.75 12.1427 18.75 11.5625V6.25Z" fill="white"/>
</svg>
