<svg width="54" height="54" viewBox="0 0 54 54" fill="none" xmlns="http://www.w3.org/2000/svg">
<g clip-path="url(#clip0_1_5)">
<path d="M27 53.5C41.6355 53.5 53.5 41.6355 53.5 27C53.5 12.3645 41.6355 0.5 27 0.5C12.3645 0.5 0.5 12.3645 0.5 27C0.5 41.6355 12.3645 53.5 27 53.5Z" stroke="#F52E26"/>
<path d="M26.8241 13C21.4004 13 17 17.2642 17 22.5162C17 28.5593 23.5494 38.136 25.9543 41.4437C26.0541 41.5833 26.1849 41.697 26.3361 41.7753C26.4873 41.8536 26.6545 41.8945 26.8241 41.8945C26.9937 41.8945 27.161 41.8536 27.3121 41.7753C27.4633 41.697 27.5941 41.5833 27.694 41.4437C30.0988 38.1374 36.6482 28.5642 36.6482 22.5162C36.6482 17.2642 32.2479 13 26.8241 13Z" stroke="#E4261E" stroke-linecap="round" stroke-linejoin="round"/>
<path d="M26.8248 26.2914C28.7397 26.2914 30.2921 24.8683 30.2921 23.113C30.2921 21.3576 28.7397 19.9346 26.8248 19.9346C24.9098 19.9346 23.3574 21.3576 23.3574 23.113C23.3574 24.8683 24.9098 26.2914 26.8248 26.2914Z" stroke="#E4261E" stroke-linecap="round" stroke-linejoin="round"/>
</g>
<defs>
<clipPath id="clip0_1_5">
<rect width="54" height="54" fill="white"/>
</clipPath>
</defs>
</svg>
