<svg width="54" height="54" viewBox="0 0 54 54" fill="none" xmlns="http://www.w3.org/2000/svg">
<g clip-path="url(#clip0_1_29)">
<path d="M27 53.5C41.6355 53.5 53.5 41.6355 53.5 27C53.5 12.3645 41.6355 0.5 27 0.5C12.3645 0.5 0.5 12.3645 0.5 27C0.5 41.6355 12.3645 53.5 27 53.5Z" stroke="#F52E26"/>
<path d="M39 19.8889V33.1111C39 33.6121 38.8055 34.0925 38.4593 34.4468C38.1131 34.801 37.6435 35 37.1538 35H16.8462C16.3565 35 15.8869 34.801 15.5407 34.4468C15.1945 34.0925 15 33.6121 15 33.1111V19.8889M39 19.8889C39 19.3879 38.8055 18.9075 38.4593 18.5532C38.1131 18.199 37.6435 18 37.1538 18H16.8462C16.3565 18 15.8869 18.199 15.5407 18.5532C15.1945 18.9075 15 19.3879 15 19.8889M39 19.8889L28.0505 27.6447C27.7418 27.8632 27.3754 27.9803 27 27.9803C26.6246 27.9803 26.2582 27.8632 25.9495 27.6447L15 19.8889" stroke="#E4261E" stroke-linecap="round" stroke-linejoin="round"/>
</g>
<defs>
<clipPath id="clip0_1_29">
<rect width="54" height="54" fill="white"/>
</clipPath>
</defs>
</svg>
