<svg width="54" height="54" viewBox="0 0 54 54" fill="none" xmlns="http://www.w3.org/2000/svg">
<g clip-path="url(#clip0_1_23)">
<path d="M27 53.5C41.6355 53.5 53.5 41.6355 53.5 27C53.5 12.3645 41.6355 0.5 27 0.5C12.3645 0.5 0.5 12.3645 0.5 27C0.5 41.6355 12.3645 53.5 27 53.5Z" stroke="#F52E26"/>
<mask id="mask0_1_23" style="mask-type:luminance" maskUnits="userSpaceOnUse" x="15" y="15" width="24" height="24">
<path d="M38.0978 31.7662L32.1952 29.1249C31.9664 29.0258 31.7165 28.9854 31.4682 29.0072C31.2198 29.0291 30.9808 29.1125 30.7727 29.2499C30.7561 29.2604 30.7402 29.2721 30.7252 29.2849L27.6252 31.9274C27.5562 31.9695 27.4779 31.9939 27.3972 31.9985C27.3165 32.0031 27.236 31.9877 27.1627 31.9537C25.1327 30.9736 23.0314 28.8886 22.0514 26.8823C22.0167 26.8096 22.0006 26.7294 22.0045 26.6489C22.0085 26.5684 22.0323 26.4901 22.0739 26.4211L24.7239 23.2698C24.7364 23.2548 24.7476 23.2386 24.7589 23.2223C24.8959 23.0146 24.979 22.776 25.0009 22.5281C25.0227 22.2802 24.9825 22.0308 24.8839 21.8023L22.2376 15.9097C22.1099 15.6113 21.8887 15.3623 21.6074 15.2003C21.3261 15.0382 20.9999 14.9718 20.6776 15.011C19.1045 15.2184 17.6608 15.9913 16.6159 17.1854C15.5711 18.3795 14.9967 19.9131 15 21.4998C15 31.1499 22.8501 39 32.5003 39C34.0869 39.0033 35.6205 38.4289 36.8146 37.3841C38.0087 36.3392 38.7817 34.8955 38.9891 33.3224C39.028 33.0016 38.9622 32.6768 38.8017 32.3964C38.6411 32.116 38.3942 31.895 38.0978 31.7662ZM38.0003 33.1974C37.8238 34.5296 37.1681 35.7519 36.1559 36.6358C35.1436 37.5197 33.8441 38.0046 32.5003 38C23.4026 38 16 30.5974 16 21.4998C15.9954 20.156 16.4803 18.8564 17.3642 17.8442C18.2481 16.8319 19.4704 16.1762 20.8026 15.9997C20.8226 15.9985 20.8426 15.9985 20.8626 15.9997C20.9612 16.0006 21.0574 16.0306 21.1391 16.086C21.2207 16.1413 21.2841 16.2196 21.3214 16.311L23.9601 22.2035C23.9909 22.2756 24.0044 22.3538 23.9994 22.432C23.9944 22.5101 23.9711 22.586 23.9314 22.6536L21.2826 25.8036C21.2701 25.8198 21.2576 25.8348 21.2463 25.8523C21.1052 26.0681 21.0221 26.3167 21.005 26.5739C20.988 26.8312 21.0375 27.0885 21.1488 27.3211C22.2351 29.5449 24.4751 31.7687 26.7239 32.8549C26.9581 32.9655 27.2169 33.0137 27.4751 32.9946C27.7334 32.9756 27.9823 32.89 28.1977 32.7462L28.2439 32.7112L31.3477 30.0711C31.4141 30.0306 31.4892 30.0064 31.5668 30.0005C31.6444 29.9946 31.7223 30.0073 31.794 30.0374L37.6953 32.6824C37.7949 32.7239 37.8784 32.7964 37.9334 32.8892C37.9884 32.9821 38.0118 33.0902 38.0003 33.1974Z" fill="#E4261E"/>
</mask>
<g mask="url(#mask0_1_23)">
<path d="M38.0978 31.7662L37.6894 32.679L37.6993 32.6833L38.0978 31.7662ZM32.1952 29.1249L32.6037 28.212L32.5924 28.2071L32.1952 29.1249ZM30.7727 29.2499L31.3081 30.0945L31.316 30.0895L31.3239 30.0843L30.7727 29.2499ZM27.6252 31.9274L28.1459 32.7811L28.2136 32.7399L28.2739 32.6884L27.6252 31.9274ZM27.1627 31.9537L26.7279 32.8542L26.7349 32.8576L26.7419 32.8608L27.1627 31.9537ZM22.0514 26.8823L21.1486 27.3125L21.1528 27.3213L22.0514 26.8823ZM22.0739 26.4211L21.3085 25.7775L21.2579 25.8377L21.2173 25.9051L22.0739 26.4211ZM24.7239 23.2698L25.4893 23.9134L25.4921 23.91L24.7239 23.2698ZM24.7589 23.2223L25.5811 23.7915L25.5875 23.7822L25.5937 23.7728L24.7589 23.2223ZM24.8839 21.8023L25.8021 21.4061L25.7992 21.3993L25.7961 21.3926L24.8839 21.8023ZM22.2376 15.9097L21.3183 16.3033L21.3218 16.3114L21.3254 16.3194L22.2376 15.9097ZM20.6776 15.011L20.5569 14.0182L20.5469 14.0195L20.6776 15.011ZM15 21.4998H16V21.4977L15 21.4998ZM32.5003 39L32.5023 38H32.5003V39ZM38.9891 33.3224L39.9806 33.4531L39.9818 33.4428L38.9891 33.3224ZM38.0003 33.1974L38.9917 33.3288L38.9933 33.3165L38.9946 33.3042L38.0003 33.1974ZM32.5003 38L32.5037 37H32.5003V38ZM16 21.4998H17V21.4963L16 21.4998ZM20.8026 15.9997L20.7406 15.0017L20.7058 15.0038L20.6712 15.0084L20.8026 15.9997ZM20.8626 15.9997L20.8006 16.9978L20.8273 16.9995L20.8541 16.9997L20.8626 15.9997ZM21.3218 16.3114L20.3953 16.6884L20.4017 16.7042L20.4087 16.7197L21.3218 16.3114ZM23.9601 22.2035L24.8796 21.8105L24.8763 21.8026L24.8728 21.7948L23.9601 22.2035ZM23.9314 22.6536L24.6968 23.2971L24.7508 23.2329L24.7934 23.1605L23.9314 22.6536ZM21.2826 25.8036L20.5172 25.16L20.5032 25.1766L20.49 25.1939L21.2826 25.8036ZM21.2463 25.8523L22.0833 26.3997L22.0875 26.3931L21.2463 25.8523ZM21.1488 27.3211L20.2469 27.753L20.2503 27.76L21.1488 27.3211ZM26.7239 32.8549L26.2889 33.7554L26.2967 33.7591L26.7239 32.8549ZM28.1977 32.7462L28.753 33.5778L28.7776 33.5614L28.8011 33.5436L28.1977 32.7462ZM28.2439 32.7112L28.8474 33.5086L28.8701 33.4914L28.8919 33.4729L28.2439 32.7112ZM31.3477 30.0711L30.8264 29.2178L30.7595 29.2586L30.6998 29.3094L31.3477 30.0711ZM31.794 30.0374L32.203 29.1249L32.1921 29.12L32.1811 29.1153L31.794 30.0374ZM37.6953 32.6824L37.2863 33.5949L37.2986 33.6005L37.311 33.6056L37.6953 32.6824ZM38.5063 30.8534L32.6037 28.212L31.7868 30.0377L37.6894 32.679L38.5063 30.8534ZM32.5924 28.2071C32.2111 28.0421 31.7946 27.9747 31.3806 28.0111L31.5557 30.0034C31.6385 29.9961 31.7218 30.0096 31.7981 30.0426L32.5924 28.2071ZM31.3806 28.0111C30.9667 28.0475 30.5683 28.1864 30.2216 28.4155L31.3239 30.0843C31.3932 30.0385 31.4729 30.0107 31.5557 30.0034L31.3806 28.0111ZM30.2374 28.4053C30.1812 28.4408 30.1277 28.4803 30.0771 28.5233L31.3734 30.0464C31.3528 30.0639 31.331 30.08 31.3081 30.0945L30.2374 28.4053ZM30.0771 28.5233L26.9765 31.1664L28.2739 32.6884L31.3734 30.0464L30.0771 28.5233ZM27.1045 31.0737C27.1759 31.0301 27.257 31.0048 27.3406 31.0001L27.4539 32.9969C27.6988 32.983 27.9365 32.9089 28.1459 32.7811L27.1045 31.0737ZM27.3406 31.0001C27.4241 30.9953 27.5075 31.0113 27.5834 31.0465L26.7419 32.8608C26.9644 32.964 27.209 33.0108 27.4539 32.9969L27.3406 31.0001ZM27.5974 31.0531C25.7674 30.1696 23.8305 28.2461 22.9499 26.4434L21.1528 27.3213C22.2323 29.5311 24.498 31.7777 26.7279 32.8542L27.5974 31.0531ZM22.9541 26.4522C22.9906 26.5287 23.0075 26.613 23.0033 26.6976L21.0057 26.6002C20.9937 26.8458 21.0428 27.0905 21.1486 27.3125L22.9541 26.4522ZM23.0033 26.6976C22.9992 26.7822 22.9742 26.8645 22.9305 26.9371L21.2173 25.9051C21.0904 26.1157 21.0177 26.3546 21.0057 26.6002L23.0033 26.6976ZM22.8392 27.0647L25.4893 23.9134L23.9585 22.6262L21.3085 25.7775L22.8392 27.0647ZM25.4921 23.91C25.538 23.8549 25.5743 23.8013 25.5811 23.7915L23.9367 22.6531C23.9336 22.6575 23.9324 22.6593 23.9314 22.6608C23.9306 22.6619 23.9311 22.6612 23.9324 22.6593C23.9349 22.6559 23.9431 22.6447 23.9557 22.6296L25.4921 23.91ZM25.5937 23.7728C25.8221 23.4266 25.9606 23.0289 25.997 22.6158L24.0047 22.4404C23.9974 22.523 23.9697 22.6026 23.9241 22.6718L25.5937 23.7728ZM25.997 22.6158C26.0334 22.2026 25.9664 21.7869 25.8021 21.4061L23.9657 22.1985C23.9986 22.2746 24.012 22.3578 24.0047 22.4404L25.997 22.6158ZM25.7961 21.3926L23.1498 15.5001L21.3254 16.3194L23.9717 22.212L25.7961 21.3926ZM23.1569 15.5162C22.944 15.0188 22.5755 14.6039 22.1066 14.3338L21.1082 16.0668C21.202 16.1208 21.2757 16.2038 21.3183 16.3033L23.1569 15.5162ZM22.1066 14.3338C21.6378 14.0637 21.094 13.9529 20.5569 14.0182L20.7983 16.0037C20.9057 15.9906 21.0145 16.0127 21.1082 16.0668L22.1066 14.3338ZM20.5469 14.0195C18.733 14.2587 17.0681 15.15 15.8634 16.5269L17.3685 17.8439C18.2534 16.8326 19.4761 16.178 20.8083 16.0024L20.5469 14.0195ZM15.8634 16.5269C14.6586 17.9038 13.9962 19.6723 14 21.5019L16 21.4977C15.9972 20.154 16.4837 18.8552 17.3685 17.8439L15.8634 16.5269ZM14 21.4998C14 31.7022 22.2978 40 32.5003 40V38C23.4024 38 16 30.5976 16 21.4998H14ZM32.4982 40C34.3278 40.0038 36.0962 39.3414 37.4731 38.1366L36.1561 36.6315C35.1449 37.5163 33.8461 38.0028 32.5023 38L32.4982 40ZM37.4731 38.1366C38.8501 36.9319 39.7415 35.267 39.9806 33.4531L37.9977 33.1917C37.822 34.5239 37.1674 35.7466 36.1561 36.6315L37.4731 38.1366ZM39.9818 33.4428C40.0466 32.9081 39.9371 32.3668 39.6694 31.8995L37.9339 32.8934C37.9874 32.9869 38.0093 33.0951 37.9964 33.2021L39.9818 33.4428ZM39.6694 31.8995C39.4018 31.4321 38.9903 31.0637 38.4964 30.849L37.6993 32.6833C37.7981 32.7262 37.8804 32.7999 37.9339 32.8934L39.6694 31.8995ZM37.009 33.0661C36.8644 34.1573 36.3273 35.1585 35.4981 35.8825L36.8136 37.3891C38.0089 36.3453 38.7832 34.9019 38.9917 33.3288L37.009 33.0661ZM35.4981 35.8825C34.669 36.6066 33.6045 37.0038 32.5037 37L32.4968 39C34.0837 39.0055 35.6183 38.4328 36.8136 37.3891L35.4981 35.8825ZM32.5003 37C23.9549 37 17 30.0451 17 21.4998H15C15 31.1497 22.8503 39 32.5003 39V37ZM17 21.4963C16.9962 20.3956 17.3934 19.3311 18.1175 18.5019L16.611 17.1864C15.5672 18.3818 14.9945 19.9164 15 21.5033L17 21.4963ZM18.1175 18.5019C18.8415 17.6727 19.8427 17.1357 20.9339 16.9911L20.6712 15.0084C19.0981 15.2168 17.6547 15.9911 16.611 17.1864L18.1175 18.5019ZM20.8646 16.9978C20.8433 16.9991 20.8219 16.9991 20.8006 16.9978L20.9246 15.0017C20.8633 14.9978 20.8019 14.9978 20.7406 15.0017L20.8646 16.9978ZM20.8541 16.9997C20.7554 16.9988 20.6592 16.9689 20.5776 16.9135L21.7005 15.2584C21.4556 15.0923 21.167 15.0023 20.8711 14.9998L20.8541 16.9997ZM20.5776 16.9135C20.496 16.8581 20.4326 16.7798 20.3953 16.6884L22.2474 15.9335C22.1357 15.6595 21.9454 15.4246 21.7005 15.2584L20.5776 16.9135ZM20.4087 16.7197L23.0475 22.6123L24.8728 21.7948L22.234 15.9023L20.4087 16.7197ZM23.0406 22.5966C23.0099 22.5246 22.9964 22.4464 23.0014 22.3682L24.9973 22.4957C25.0123 22.2612 24.972 22.0265 24.8796 21.8105L23.0406 22.5966ZM23.0014 22.3682C23.0064 22.29 23.0297 22.2142 23.0694 22.1466L24.7934 23.1605C24.9125 22.9579 24.9824 22.7302 24.9973 22.4957L23.0014 22.3682ZM23.166 22.01L20.5172 25.16L22.048 26.4472L24.6968 23.2971L23.166 22.01ZM20.49 25.1939C20.4901 25.1937 20.4899 25.1939 20.486 25.199C20.4831 25.2027 20.4767 25.2109 20.4697 25.22C20.4552 25.2389 20.4313 25.2709 20.4052 25.3116L22.0875 26.3931C22.0726 26.4162 22.0606 26.432 22.0584 26.4349C22.0574 26.4362 22.0572 26.4364 22.0605 26.4322C22.0628 26.4293 22.0689 26.4216 22.0752 26.4133L20.49 25.1939ZM20.4094 25.305C20.1742 25.6647 20.0357 26.0789 20.0072 26.5077L22.0028 26.6402C22.0085 26.5544 22.0362 26.4717 22.0833 26.3997L20.4094 25.305ZM20.0072 26.5077C19.9788 26.9365 20.0613 27.3654 20.2469 27.753L22.0508 26.8892C22.0137 26.8117 21.9972 26.7259 22.0028 26.6402L20.0072 26.5077ZM20.2503 27.76C21.4359 30.1872 23.8401 32.5725 26.2889 33.7554L27.1589 31.9545C25.1101 30.9648 23.0343 28.9026 22.0474 26.8822L20.2503 27.76ZM26.2967 33.7591C26.687 33.9435 27.1183 34.0237 27.5487 33.9919L27.4015 31.9973C27.3155 32.0037 27.2292 31.9876 27.1511 31.9508L26.2967 33.7591ZM27.5487 33.9919C27.9792 33.9601 28.394 33.8175 28.753 33.5778L27.6424 31.9145C27.5706 31.9624 27.4876 31.991 27.4015 31.9973L27.5487 33.9919ZM28.8011 33.5436L28.8474 33.5086L27.6405 31.9138L27.5943 31.9488L28.8011 33.5436ZM28.8919 33.4729L31.9956 30.8329L30.6998 29.3094L27.596 31.9494L28.8919 33.4729ZM31.8691 30.9245C31.8003 30.9665 31.7226 30.9916 31.6422 30.9976L31.4914 29.0033C31.2559 29.0212 31.028 29.0947 30.8264 29.2178L31.8691 30.9245ZM31.6422 30.9976C31.5619 31.0037 31.4812 30.9906 31.4069 30.9594L32.1811 29.1153C31.9633 29.0239 31.7269 28.9855 31.4914 29.0033L31.6422 30.9976ZM31.385 30.9499L37.2863 33.5949L38.1043 31.7699L32.203 29.1249L31.385 30.9499ZM37.311 33.6056C37.2115 33.5642 37.1279 33.4916 37.073 33.3988L38.7938 32.3797C38.6289 32.1012 38.3784 31.8836 38.0796 31.7592L37.311 33.6056ZM37.073 33.3988C37.018 33.306 36.9945 33.1979 37.006 33.0906L38.9946 33.3042C39.0292 32.9824 38.9587 32.6581 38.7938 32.3797L37.073 33.3988Z" fill="#E4261E"/>
</g>
</g>
<defs>
<clipPath id="clip0_1_23">
<rect width="54" height="54" fill="white"/>
</clipPath>
</defs>
</svg>
