<svg width="21" height="20" viewBox="0 0 21 20" fill="none" xmlns="http://www.w3.org/2000/svg">
<g id="Group">
<path id="Vector" d="M10.5294 19C15.7923 19 20.0588 14.5943 20.0588 11.5883C20.0588 8.58228 15.7923 4.17651 10.5294 4.17651C5.26653 4.17651 1 8.58545 1 11.5883C1 14.5911 5.26653 19 10.5294 19Z" stroke="black" stroke-linejoin="round"/>
<path id="Vector_2" d="M10.53 14.7648C11.3724 14.7648 12.1804 14.4301 12.7761 13.8344C13.3718 13.2387 13.7065 12.4308 13.7065 11.5883C13.7065 10.7459 13.3718 9.93794 12.7761 9.34223C12.1804 8.74653 11.3724 8.41187 10.53 8.41187C9.68753 8.41187 8.87959 8.74653 8.28388 9.34223C7.68818 9.93794 7.35352 10.7459 7.35352 11.5883C7.35352 12.4308 7.68818 13.2387 8.28388 13.8344C8.87959 14.4301 9.68753 14.7648 10.53 14.7648Z" stroke="black" stroke-linejoin="round"/>
<path id="Vector_3" d="M4.8457 3.25847L6.219 5.17494M16.6839 3.49353L15.3101 5.41M10.5342 1V4.17647" stroke="black" stroke-linecap="round"/>
</g>
</svg>
