<svg width="26" height="26" viewBox="0 0 26 26" fill="none" xmlns="http://www.w3.org/2000/svg">
<path id="Vector" d="M10.4 19.8095C8.97 19.8095 7.8 18.6952 7.8 17.3333C7.8 15.9714 8.97 14.8571 10.4 14.8571C11.83 14.8571 13 15.9714 13 17.3333C13 18.6952 11.83 19.8095 10.4 19.8095ZM18.2 23.5238V11.1429H2.6V23.5238H18.2ZM18.2 8.66667C19.63 8.66667 20.8 9.78095 20.8 11.1429V23.5238C20.8 24.8857 19.63 26 18.2 26H2.6C1.17 26 0 24.8857 0 23.5238V11.1429C0 9.78095 1.17 8.66667 2.6 8.66667H3.9V6.19048C3.9 2.72381 6.76 0 10.4 0C14.04 0 16.9 2.72381 16.9 6.19048V8.66667H18.2ZM10.4 2.47619C8.19 2.47619 6.5 4.08571 6.5 6.19048V8.66667H14.3V6.19048C14.3 4.08571 12.61 2.47619 10.4 2.47619ZM26 7.42857H23.4V14.8571H26V7.42857ZM26 17.3333H23.4V19.8095H26V17.3333Z" fill="#878787"/>
</svg>
